<?xml version="1.0" encoding="utf-8"?>
<svg xmlns="http://www.w3.org/2000/svg" xmlns:xlink="http://www.w3.org/1999/xlink" width="600" height="400" viewBox="0 0 2400 1600">
<defs>
  <clipPath id="clip600">
    <rect x="0" y="0" width="2400" height="1600"/>
  </clipPath>
</defs>
<path clip-path="url(#clip600)" d="M0 1600 L2400 1600 L2400 0 L0 0  Z" fill="#ffffff" fill-rule="evenodd" fill-opacity="1"/>
<defs>
  <clipPath id="clip601">
    <rect x="480" y="0" width="1681" height="1600"/>
  </clipPath>
</defs>
<defs>
  <clipPath id="clip602">
    <rect x="112" y="130" width="2242" height="1357"/>
  </clipPath>
</defs>
<path clip-path="url(#clip600)" d="M112.177 1486.45 L2352.76 1486.45 L2352.76 130.487 L112.177 130.487  Z" fill="#ffffff" fill-rule="evenodd" fill-opacity="1"/>
<polyline clip-path="url(#clip602)" style="stroke:#000000; stroke-linecap:round; stroke-linejoin:round; stroke-width:2; stroke-opacity:0.1; fill:none" points="175.59,1486.45 175.59,130.487 "/>
<polyline clip-path="url(#clip602)" style="stroke:#000000; stroke-linecap:round; stroke-linejoin:round; stroke-width:2; stroke-opacity:0.1; fill:none" points="704.028,1486.45 704.028,130.487 "/>
<polyline clip-path="url(#clip602)" style="stroke:#000000; stroke-linecap:round; stroke-linejoin:round; stroke-width:2; stroke-opacity:0.1; fill:none" points="1232.47,1486.45 1232.47,130.487 "/>
<polyline clip-path="url(#clip602)" style="stroke:#000000; stroke-linecap:round; stroke-linejoin:round; stroke-width:2; stroke-opacity:0.1; fill:none" points="1760.9,1486.45 1760.9,130.487 "/>
<polyline clip-path="url(#clip602)" style="stroke:#000000; stroke-linecap:round; stroke-linejoin:round; stroke-width:2; stroke-opacity:0.1; fill:none" points="2289.34,1486.45 2289.34,130.487 "/>
<polyline clip-path="url(#clip600)" style="stroke:#000000; stroke-linecap:round; stroke-linejoin:round; stroke-width:4; stroke-opacity:1; fill:none" points="112.177,1486.45 2352.76,1486.45 "/>
<polyline clip-path="url(#clip600)" style="stroke:#000000; stroke-linecap:round; stroke-linejoin:round; stroke-width:4; stroke-opacity:1; fill:none" points="175.59,1486.45 175.59,1467.55 "/>
<polyline clip-path="url(#clip600)" style="stroke:#000000; stroke-linecap:round; stroke-linejoin:round; stroke-width:4; stroke-opacity:1; fill:none" points="704.028,1486.45 704.028,1467.55 "/>
<polyline clip-path="url(#clip600)" style="stroke:#000000; stroke-linecap:round; stroke-linejoin:round; stroke-width:4; stroke-opacity:1; fill:none" points="1232.47,1486.45 1232.47,1467.55 "/>
<polyline clip-path="url(#clip600)" style="stroke:#000000; stroke-linecap:round; stroke-linejoin:round; stroke-width:4; stroke-opacity:1; fill:none" points="1760.9,1486.45 1760.9,1467.55 "/>
<polyline clip-path="url(#clip600)" style="stroke:#000000; stroke-linecap:round; stroke-linejoin:round; stroke-width:4; stroke-opacity:1; fill:none" points="2289.34,1486.45 2289.34,1467.55 "/>
<path clip-path="url(#clip600)" d="M137.893 1517.37 Q134.282 1517.37 132.453 1520.93 Q130.648 1524.47 130.648 1531.6 Q130.648 1538.71 132.453 1542.27 Q134.282 1545.82 137.893 1545.82 Q141.527 1545.82 143.333 1542.27 Q145.162 1538.71 145.162 1531.6 Q145.162 1524.47 143.333 1520.93 Q141.527 1517.37 137.893 1517.37 M137.893 1513.66 Q143.703 1513.66 146.759 1518.27 Q149.838 1522.85 149.838 1531.6 Q149.838 1540.33 146.759 1544.94 Q143.703 1549.52 137.893 1549.52 Q132.083 1549.52 129.004 1544.94 Q125.949 1540.33 125.949 1531.6 Q125.949 1522.85 129.004 1518.27 Q132.083 1513.66 137.893 1513.66 Z" fill="#000000" fill-rule="nonzero" fill-opacity="1" /><path clip-path="url(#clip600)" d="M158.055 1542.97 L162.939 1542.97 L162.939 1548.85 L158.055 1548.85 L158.055 1542.97 Z" fill="#000000" fill-rule="nonzero" fill-opacity="1" /><path clip-path="url(#clip600)" d="M183.124 1517.37 Q179.513 1517.37 177.685 1520.93 Q175.879 1524.47 175.879 1531.6 Q175.879 1538.71 177.685 1542.27 Q179.513 1545.82 183.124 1545.82 Q186.759 1545.82 188.564 1542.27 Q190.393 1538.71 190.393 1531.6 Q190.393 1524.47 188.564 1520.93 Q186.759 1517.37 183.124 1517.37 M183.124 1513.66 Q188.935 1513.66 191.99 1518.27 Q195.069 1522.85 195.069 1531.6 Q195.069 1540.33 191.99 1544.94 Q188.935 1549.52 183.124 1549.52 Q177.314 1549.52 174.236 1544.94 Q171.18 1540.33 171.18 1531.6 Q171.18 1522.85 174.236 1518.27 Q177.314 1513.66 183.124 1513.66 Z" fill="#000000" fill-rule="nonzero" fill-opacity="1" /><path clip-path="url(#clip600)" d="M213.286 1517.37 Q209.675 1517.37 207.847 1520.93 Q206.041 1524.47 206.041 1531.6 Q206.041 1538.71 207.847 1542.27 Q209.675 1545.82 213.286 1545.82 Q216.921 1545.82 218.726 1542.27 Q220.555 1538.71 220.555 1531.6 Q220.555 1524.47 218.726 1520.93 Q216.921 1517.37 213.286 1517.37 M213.286 1513.66 Q219.096 1513.66 222.152 1518.27 Q225.231 1522.85 225.231 1531.6 Q225.231 1540.33 222.152 1544.94 Q219.096 1549.52 213.286 1549.52 Q207.476 1549.52 204.397 1544.94 Q201.342 1540.33 201.342 1531.6 Q201.342 1522.85 204.397 1518.27 Q207.476 1513.66 213.286 1513.66 Z" fill="#000000" fill-rule="nonzero" fill-opacity="1" /><path clip-path="url(#clip600)" d="M666.829 1517.37 Q663.218 1517.37 661.39 1520.93 Q659.584 1524.47 659.584 1531.6 Q659.584 1538.71 661.39 1542.27 Q663.218 1545.82 666.829 1545.82 Q670.464 1545.82 672.269 1542.27 Q674.098 1538.71 674.098 1531.6 Q674.098 1524.47 672.269 1520.93 Q670.464 1517.37 666.829 1517.37 M666.829 1513.66 Q672.639 1513.66 675.695 1518.27 Q678.774 1522.85 678.774 1531.6 Q678.774 1540.33 675.695 1544.94 Q672.639 1549.52 666.829 1549.52 Q661.019 1549.52 657.94 1544.94 Q654.885 1540.33 654.885 1531.6 Q654.885 1522.85 657.94 1518.27 Q661.019 1513.66 666.829 1513.66 Z" fill="#000000" fill-rule="nonzero" fill-opacity="1" /><path clip-path="url(#clip600)" d="M686.991 1542.97 L691.875 1542.97 L691.875 1548.85 L686.991 1548.85 L686.991 1542.97 Z" fill="#000000" fill-rule="nonzero" fill-opacity="1" /><path clip-path="url(#clip600)" d="M706.088 1544.91 L722.408 1544.91 L722.408 1548.85 L700.463 1548.85 L700.463 1544.91 Q703.125 1542.16 707.709 1537.53 Q712.315 1532.88 713.496 1531.53 Q715.741 1529.01 716.621 1527.27 Q717.523 1525.51 717.523 1523.82 Q717.523 1521.07 715.579 1519.33 Q713.658 1517.6 710.556 1517.6 Q708.357 1517.6 705.903 1518.36 Q703.473 1519.13 700.695 1520.68 L700.695 1515.95 Q703.519 1514.82 705.973 1514.24 Q708.426 1513.66 710.463 1513.66 Q715.834 1513.66 719.028 1516.35 Q722.223 1519.03 722.223 1523.52 Q722.223 1525.65 721.412 1527.57 Q720.625 1529.47 718.519 1532.07 Q717.94 1532.74 714.838 1535.95 Q711.736 1539.15 706.088 1544.91 Z" fill="#000000" fill-rule="nonzero" fill-opacity="1" /><path clip-path="url(#clip600)" d="M732.269 1514.29 L750.625 1514.29 L750.625 1518.22 L736.551 1518.22 L736.551 1526.7 Q737.57 1526.35 738.588 1526.19 Q739.607 1526 740.625 1526 Q746.412 1526 749.792 1529.17 Q753.171 1532.34 753.171 1537.76 Q753.171 1543.34 749.699 1546.44 Q746.227 1549.52 739.908 1549.52 Q737.732 1549.52 735.463 1549.15 Q733.218 1548.78 730.81 1548.04 L730.81 1543.34 Q732.894 1544.47 735.116 1545.03 Q737.338 1545.58 739.815 1545.58 Q743.82 1545.58 746.158 1543.48 Q748.496 1541.37 748.496 1537.76 Q748.496 1534.15 746.158 1532.04 Q743.82 1529.94 739.815 1529.94 Q737.94 1529.94 736.065 1530.35 Q734.213 1530.77 732.269 1531.65 L732.269 1514.29 Z" fill="#000000" fill-rule="nonzero" fill-opacity="1" /><path clip-path="url(#clip600)" d="M1194.77 1517.37 Q1191.16 1517.37 1189.33 1520.93 Q1187.52 1524.47 1187.52 1531.6 Q1187.52 1538.71 1189.33 1542.27 Q1191.16 1545.82 1194.77 1545.82 Q1198.4 1545.82 1200.21 1542.27 Q1202.04 1538.71 1202.04 1531.6 Q1202.04 1524.47 1200.21 1520.93 Q1198.4 1517.37 1194.77 1517.37 M1194.77 1513.66 Q1200.58 1513.66 1203.64 1518.27 Q1206.71 1522.85 1206.71 1531.6 Q1206.71 1540.33 1203.64 1544.94 Q1200.58 1549.52 1194.77 1549.52 Q1188.96 1549.52 1185.88 1544.94 Q1182.83 1540.33 1182.83 1531.6 Q1182.83 1522.85 1185.88 1518.27 Q1188.96 1513.66 1194.77 1513.66 Z" fill="#000000" fill-rule="nonzero" fill-opacity="1" /><path clip-path="url(#clip600)" d="M1214.93 1542.97 L1219.82 1542.97 L1219.82 1548.85 L1214.93 1548.85 L1214.93 1542.97 Z" fill="#000000" fill-rule="nonzero" fill-opacity="1" /><path clip-path="url(#clip600)" d="M1230.05 1514.29 L1248.4 1514.29 L1248.4 1518.22 L1234.33 1518.22 L1234.33 1526.7 Q1235.35 1526.35 1236.37 1526.19 Q1237.39 1526 1238.4 1526 Q1244.19 1526 1247.57 1529.17 Q1250.95 1532.34 1250.95 1537.76 Q1250.95 1543.34 1247.48 1546.44 Q1244.01 1549.52 1237.69 1549.52 Q1235.51 1549.52 1233.24 1549.15 Q1231 1548.78 1228.59 1548.04 L1228.59 1543.34 Q1230.67 1544.47 1232.89 1545.03 Q1235.12 1545.58 1237.59 1545.58 Q1241.6 1545.58 1243.94 1543.48 Q1246.27 1541.37 1246.27 1537.76 Q1246.27 1534.15 1243.94 1532.04 Q1241.6 1529.94 1237.59 1529.94 Q1235.72 1529.94 1233.84 1530.35 Q1231.99 1530.77 1230.05 1531.65 L1230.05 1514.29 Z" fill="#000000" fill-rule="nonzero" fill-opacity="1" /><path clip-path="url(#clip600)" d="M1270.16 1517.37 Q1266.55 1517.37 1264.72 1520.93 Q1262.92 1524.47 1262.92 1531.6 Q1262.92 1538.71 1264.72 1542.27 Q1266.55 1545.82 1270.16 1545.82 Q1273.8 1545.82 1275.6 1542.27 Q1277.43 1538.71 1277.43 1531.6 Q1277.43 1524.47 1275.6 1520.93 Q1273.8 1517.37 1270.16 1517.37 M1270.16 1513.66 Q1275.97 1513.66 1279.03 1518.27 Q1282.11 1522.85 1282.11 1531.6 Q1282.11 1540.33 1279.03 1544.94 Q1275.97 1549.52 1270.16 1549.52 Q1264.35 1549.52 1261.27 1544.94 Q1258.22 1540.33 1258.22 1531.6 Q1258.22 1522.85 1261.27 1518.27 Q1264.35 1513.66 1270.16 1513.66 Z" fill="#000000" fill-rule="nonzero" fill-opacity="1" /><path clip-path="url(#clip600)" d="M1723.71 1517.37 Q1720.09 1517.37 1718.27 1520.93 Q1716.46 1524.47 1716.46 1531.6 Q1716.46 1538.71 1718.27 1542.27 Q1720.09 1545.82 1723.71 1545.82 Q1727.34 1545.82 1729.15 1542.27 Q1730.97 1538.71 1730.97 1531.6 Q1730.97 1524.47 1729.15 1520.93 Q1727.34 1517.37 1723.71 1517.37 M1723.71 1513.66 Q1729.52 1513.66 1732.57 1518.27 Q1735.65 1522.85 1735.65 1531.6 Q1735.65 1540.33 1732.57 1544.94 Q1729.52 1549.52 1723.71 1549.52 Q1717.9 1549.52 1714.82 1544.94 Q1711.76 1540.33 1711.76 1531.6 Q1711.76 1522.85 1714.82 1518.27 Q1717.9 1513.66 1723.71 1513.66 Z" fill="#000000" fill-rule="nonzero" fill-opacity="1" /><path clip-path="url(#clip600)" d="M1743.87 1542.97 L1748.75 1542.97 L1748.75 1548.85 L1743.87 1548.85 L1743.87 1542.97 Z" fill="#000000" fill-rule="nonzero" fill-opacity="1" /><path clip-path="url(#clip600)" d="M1757.76 1514.29 L1779.98 1514.29 L1779.98 1516.28 L1767.43 1548.85 L1762.55 1548.85 L1774.35 1518.22 L1757.76 1518.22 L1757.76 1514.29 Z" fill="#000000" fill-rule="nonzero" fill-opacity="1" /><path clip-path="url(#clip600)" d="M1789.15 1514.29 L1807.5 1514.29 L1807.5 1518.22 L1793.43 1518.22 L1793.43 1526.7 Q1794.45 1526.35 1795.46 1526.19 Q1796.48 1526 1797.5 1526 Q1803.29 1526 1806.67 1529.17 Q1810.05 1532.34 1810.05 1537.76 Q1810.05 1543.34 1806.58 1546.44 Q1803.1 1549.52 1796.78 1549.52 Q1794.61 1549.52 1792.34 1549.15 Q1790.09 1548.78 1787.69 1548.04 L1787.69 1543.34 Q1789.77 1544.47 1791.99 1545.03 Q1794.21 1545.58 1796.69 1545.58 Q1800.7 1545.58 1803.03 1543.48 Q1805.37 1541.37 1805.37 1537.76 Q1805.37 1534.15 1803.03 1532.04 Q1800.7 1529.94 1796.69 1529.94 Q1794.82 1529.94 1792.94 1530.35 Q1791.09 1530.77 1789.15 1531.65 L1789.15 1514.29 Z" fill="#000000" fill-rule="nonzero" fill-opacity="1" /><path clip-path="url(#clip600)" d="M2241.42 1544.91 L2249.05 1544.91 L2249.05 1518.55 L2240.74 1520.21 L2240.74 1515.95 L2249.01 1514.29 L2253.68 1514.29 L2253.68 1544.91 L2261.32 1544.91 L2261.32 1548.85 L2241.42 1548.85 L2241.42 1544.91 Z" fill="#000000" fill-rule="nonzero" fill-opacity="1" /><path clip-path="url(#clip600)" d="M2270.77 1542.97 L2275.65 1542.97 L2275.65 1548.85 L2270.77 1548.85 L2270.77 1542.97 Z" fill="#000000" fill-rule="nonzero" fill-opacity="1" /><path clip-path="url(#clip600)" d="M2295.84 1517.37 Q2292.23 1517.37 2290.4 1520.93 Q2288.59 1524.47 2288.59 1531.6 Q2288.59 1538.71 2290.4 1542.27 Q2292.23 1545.82 2295.84 1545.82 Q2299.47 1545.82 2301.28 1542.27 Q2303.1 1538.71 2303.1 1531.6 Q2303.1 1524.47 2301.28 1520.93 Q2299.47 1517.37 2295.84 1517.37 M2295.84 1513.66 Q2301.65 1513.66 2304.7 1518.27 Q2307.78 1522.85 2307.78 1531.6 Q2307.78 1540.33 2304.7 1544.94 Q2301.65 1549.52 2295.84 1549.52 Q2290.03 1549.52 2286.95 1544.94 Q2283.89 1540.33 2283.89 1531.6 Q2283.89 1522.85 2286.95 1518.27 Q2290.03 1513.66 2295.84 1513.66 Z" fill="#000000" fill-rule="nonzero" fill-opacity="1" /><path clip-path="url(#clip600)" d="M2326 1517.37 Q2322.39 1517.37 2320.56 1520.93 Q2318.75 1524.47 2318.75 1531.6 Q2318.75 1538.71 2320.56 1542.27 Q2322.39 1545.82 2326 1545.82 Q2329.63 1545.82 2331.44 1542.27 Q2333.27 1538.71 2333.27 1531.6 Q2333.27 1524.47 2331.44 1520.93 Q2329.63 1517.37 2326 1517.37 M2326 1513.66 Q2331.81 1513.66 2334.86 1518.27 Q2337.94 1522.85 2337.94 1531.6 Q2337.94 1540.33 2334.86 1544.94 Q2331.81 1549.52 2326 1549.52 Q2320.19 1549.52 2317.11 1544.94 Q2314.05 1540.33 2314.05 1531.6 Q2314.05 1522.85 2317.11 1518.27 Q2320.19 1513.66 2326 1513.66 Z" fill="#000000" fill-rule="nonzero" fill-opacity="1" /><polyline clip-path="url(#clip602)" style="stroke:#000000; stroke-linecap:round; stroke-linejoin:round; stroke-width:2; stroke-opacity:0.1; fill:none" points="112.177,1448.07 2352.76,1448.07 "/>
<polyline clip-path="url(#clip602)" style="stroke:#000000; stroke-linecap:round; stroke-linejoin:round; stroke-width:2; stroke-opacity:0.1; fill:none" points="112.177,1234.87 2352.76,1234.87 "/>
<polyline clip-path="url(#clip602)" style="stroke:#000000; stroke-linecap:round; stroke-linejoin:round; stroke-width:2; stroke-opacity:0.1; fill:none" points="112.177,1021.67 2352.76,1021.67 "/>
<polyline clip-path="url(#clip602)" style="stroke:#000000; stroke-linecap:round; stroke-linejoin:round; stroke-width:2; stroke-opacity:0.1; fill:none" points="112.177,808.467 2352.76,808.467 "/>
<polyline clip-path="url(#clip602)" style="stroke:#000000; stroke-linecap:round; stroke-linejoin:round; stroke-width:2; stroke-opacity:0.1; fill:none" points="112.177,595.266 2352.76,595.266 "/>
<polyline clip-path="url(#clip602)" style="stroke:#000000; stroke-linecap:round; stroke-linejoin:round; stroke-width:2; stroke-opacity:0.1; fill:none" points="112.177,382.064 2352.76,382.064 "/>
<polyline clip-path="url(#clip602)" style="stroke:#000000; stroke-linecap:round; stroke-linejoin:round; stroke-width:2; stroke-opacity:0.1; fill:none" points="112.177,168.863 2352.76,168.863 "/>
<polyline clip-path="url(#clip600)" style="stroke:#000000; stroke-linecap:round; stroke-linejoin:round; stroke-width:4; stroke-opacity:1; fill:none" points="112.177,1486.45 112.177,130.487 "/>
<polyline clip-path="url(#clip600)" style="stroke:#000000; stroke-linecap:round; stroke-linejoin:round; stroke-width:4; stroke-opacity:1; fill:none" points="112.177,1448.07 131.075,1448.07 "/>
<polyline clip-path="url(#clip600)" style="stroke:#000000; stroke-linecap:round; stroke-linejoin:round; stroke-width:4; stroke-opacity:1; fill:none" points="112.177,1234.87 131.075,1234.87 "/>
<polyline clip-path="url(#clip600)" style="stroke:#000000; stroke-linecap:round; stroke-linejoin:round; stroke-width:4; stroke-opacity:1; fill:none" points="112.177,1021.67 131.075,1021.67 "/>
<polyline clip-path="url(#clip600)" style="stroke:#000000; stroke-linecap:round; stroke-linejoin:round; stroke-width:4; stroke-opacity:1; fill:none" points="112.177,808.467 131.075,808.467 "/>
<polyline clip-path="url(#clip600)" style="stroke:#000000; stroke-linecap:round; stroke-linejoin:round; stroke-width:4; stroke-opacity:1; fill:none" points="112.177,595.266 131.075,595.266 "/>
<polyline clip-path="url(#clip600)" style="stroke:#000000; stroke-linecap:round; stroke-linejoin:round; stroke-width:4; stroke-opacity:1; fill:none" points="112.177,382.064 131.075,382.064 "/>
<polyline clip-path="url(#clip600)" style="stroke:#000000; stroke-linecap:round; stroke-linejoin:round; stroke-width:4; stroke-opacity:1; fill:none" points="112.177,168.863 131.075,168.863 "/>
<path clip-path="url(#clip600)" d="M64.2328 1433.87 Q60.6217 1433.87 58.793 1437.44 Q56.9875 1440.98 56.9875 1448.11 Q56.9875 1455.21 58.793 1458.78 Q60.6217 1462.32 64.2328 1462.32 Q67.867 1462.32 69.6726 1458.78 Q71.5013 1455.21 71.5013 1448.11 Q71.5013 1440.98 69.6726 1437.44 Q67.867 1433.87 64.2328 1433.87 M64.2328 1430.17 Q70.0429 1430.17 73.0985 1434.77 Q76.1772 1439.36 76.1772 1448.11 Q76.1772 1456.83 73.0985 1461.44 Q70.0429 1466.02 64.2328 1466.02 Q58.4226 1466.02 55.344 1461.44 Q52.2884 1456.83 52.2884 1448.11 Q52.2884 1439.36 55.344 1434.77 Q58.4226 1430.17 64.2328 1430.17 Z" fill="#000000" fill-rule="nonzero" fill-opacity="1" /><path clip-path="url(#clip600)" d="M56.2699 1248.21 L63.9087 1248.21 L63.9087 1221.85 L55.5986 1223.52 L55.5986 1219.26 L63.8624 1217.59 L68.5383 1217.59 L68.5383 1248.21 L76.1772 1248.21 L76.1772 1252.15 L56.2699 1252.15 L56.2699 1248.21 Z" fill="#000000" fill-rule="nonzero" fill-opacity="1" /><path clip-path="url(#clip600)" d="M59.8578 1035.01 L76.1772 1035.01 L76.1772 1038.95 L54.2328 1038.95 L54.2328 1035.01 Q56.8949 1032.26 61.4782 1027.63 Q66.0846 1022.98 67.2652 1021.63 Q69.5105 1019.11 70.3902 1017.37 Q71.2929 1015.62 71.2929 1013.93 Q71.2929 1011.17 69.3485 1009.43 Q67.4272 1007.7 64.3254 1007.7 Q62.1263 1007.7 59.6726 1008.46 Q57.2421 1009.23 54.4643 1010.78 L54.4643 1006.06 Q57.2884 1004.92 59.7421 1004.34 Q62.1958 1003.76 64.2328 1003.76 Q69.6031 1003.76 72.7976 1006.45 Q75.992 1009.13 75.992 1013.62 Q75.992 1015.75 75.1818 1017.68 Q74.3948 1019.57 72.2883 1022.17 Q71.7096 1022.84 68.6078 1026.06 Q65.5059 1029.25 59.8578 1035.01 Z" fill="#000000" fill-rule="nonzero" fill-opacity="1" /><path clip-path="url(#clip600)" d="M69.0476 807.113 Q72.404 807.831 74.279 810.099 Q76.1772 812.368 76.1772 815.701 Q76.1772 820.817 72.6587 823.618 Q69.1402 826.418 62.6587 826.418 Q60.4828 826.418 58.168 825.979 Q55.8764 825.562 53.4227 824.706 L53.4227 820.192 Q55.3671 821.326 57.6819 821.905 Q59.9967 822.483 62.5198 822.483 Q66.918 822.483 69.2096 820.747 Q71.5244 819.011 71.5244 815.701 Q71.5244 812.645 69.3717 810.932 Q67.242 809.196 63.4226 809.196 L59.3949 809.196 L59.3949 805.354 L63.6078 805.354 Q67.0569 805.354 68.8855 803.988 Q70.7142 802.599 70.7142 800.007 Q70.7142 797.345 68.8161 795.933 Q66.9411 794.497 63.4226 794.497 Q61.5013 794.497 59.3023 794.914 Q57.1032 795.331 54.4643 796.21 L54.4643 792.044 Q57.1264 791.303 59.4412 790.933 Q61.7791 790.562 63.8393 790.562 Q69.1633 790.562 72.2652 792.993 Q75.367 795.4 75.367 799.52 Q75.367 802.391 73.7235 804.382 Q72.08 806.349 69.0476 807.113 Z" fill="#000000" fill-rule="nonzero" fill-opacity="1" /><path clip-path="url(#clip600)" d="M66.5939 582.06 L54.7884 600.509 L66.5939 600.509 L66.5939 582.06 M65.367 577.986 L71.2466 577.986 L71.2466 600.509 L76.1772 600.509 L76.1772 604.398 L71.2466 604.398 L71.2466 612.546 L66.5939 612.546 L66.5939 604.398 L50.9921 604.398 L50.9921 599.884 L65.367 577.986 Z" fill="#000000" fill-rule="nonzero" fill-opacity="1" /><path clip-path="url(#clip600)" d="M55.2745 364.784 L73.6309 364.784 L73.6309 368.719 L59.5569 368.719 L59.5569 377.192 Q60.5754 376.844 61.5939 376.682 Q62.6124 376.497 63.6309 376.497 Q69.418 376.497 72.7976 379.668 Q76.1772 382.84 76.1772 388.256 Q76.1772 393.835 72.705 396.937 Q69.2328 400.016 62.9134 400.016 Q60.7374 400.016 58.4689 399.645 Q56.2236 399.275 53.8162 398.534 L53.8162 393.835 Q55.8995 394.969 58.1217 395.525 Q60.3439 396.08 62.8208 396.08 Q66.8254 396.08 69.1633 393.974 Q71.5013 391.867 71.5013 388.256 Q71.5013 384.645 69.1633 382.539 Q66.8254 380.432 62.8208 380.432 Q60.9458 380.432 59.0708 380.849 Q57.2189 381.266 55.2745 382.145 L55.2745 364.784 Z" fill="#000000" fill-rule="nonzero" fill-opacity="1" /><path clip-path="url(#clip600)" d="M64.6495 166.999 Q61.5013 166.999 59.6495 169.152 Q57.8208 171.305 57.8208 175.055 Q57.8208 178.782 59.6495 180.958 Q61.5013 183.11 64.6495 183.11 Q67.7976 183.11 69.6263 180.958 Q71.4781 178.782 71.4781 175.055 Q71.4781 171.305 69.6263 169.152 Q67.7976 166.999 64.6495 166.999 M73.9318 152.347 L73.9318 156.606 Q72.1726 155.773 70.367 155.333 Q68.5846 154.893 66.8254 154.893 Q62.1958 154.893 59.7421 158.018 Q57.3115 161.143 56.9643 167.462 Q58.33 165.448 60.3902 164.384 Q62.4504 163.296 64.9272 163.296 Q70.1355 163.296 73.1448 166.467 Q76.1772 169.615 76.1772 175.055 Q76.1772 180.379 73.029 183.596 Q69.8809 186.814 64.6495 186.814 Q58.6541 186.814 55.4828 182.231 Q52.3116 177.624 52.3116 168.897 Q52.3116 160.703 56.2004 155.842 Q60.0893 150.958 66.6402 150.958 Q68.3994 150.958 70.1818 151.305 Q71.9874 151.652 73.9318 152.347 Z" fill="#000000" fill-rule="nonzero" fill-opacity="1" /><path clip-path="url(#clip600)" d="M1177.9 54.4729 Q1177.9 61.2361 1174.99 67.8764 Q1172.12 74.4757 1167.45 79.4764 Q1162.82 84.4361 1156.55 87.5103 Q1150.27 90.5845 1143.88 90.5845 L1116.09 90.5845 Q1115.11 90.5845 1114.7 90.5435 Q1114.33 90.5025 1114.04 90.2975 Q1113.75 90.0516 1113.75 89.5597 Q1113.75 88.7809 1114.08 88.453 Q1114.41 88.0841 1114.78 88.0431 Q1115.15 88.0021 1116.09 88.0021 Q1118.14 88.0021 1119.37 87.8792 Q1120.6 87.7562 1121.38 87.5923 Q1122.2 87.3873 1122.61 86.8135 Q1123.06 86.2396 1123.26 85.7477 Q1123.47 85.2149 1123.75 84.0262 L1134.99 38.938 Q1135.31 37.5853 1135.31 37.3804 Q1135.31 36.6836 1134.9 36.4376 Q1134.53 36.1507 1133.47 36.0277 Q1131.42 35.8638 1129.86 35.8638 Q1128.84 35.8638 1128.43 35.8228 Q1128.06 35.7818 1127.73 35.5769 Q1127.44 35.3309 1127.44 34.8391 Q1127.44 34.0603 1127.77 33.7323 Q1128.14 33.3634 1128.55 33.3224 Q1128.96 33.2405 1129.94 33.2405 L1158.14 33.2405 Q1164.25 33.2405 1168.8 36.1097 Q1173.35 38.938 1175.61 43.7337 Q1177.9 48.4885 1177.9 54.4729 M1170.56 51.3987 Q1170.56 43.5698 1166.3 39.7168 Q1162.08 35.8638 1155.4 35.8638 L1146.42 35.8638 Q1143.76 35.8638 1143.1 36.3557 Q1142.45 36.8065 1141.87 39.0609 L1130.35 85.1329 Q1129.94 86.6495 1129.94 87.0594 Q1129.94 87.5103 1130.15 87.6742 Q1130.39 87.7972 1131.05 87.8792 Q1131.79 88.0021 1132.9 88.0021 L1142.36 88.0021 Q1146.01 88.0021 1149.33 87.0184 Q1152.69 85.9937 1155.11 84.3951 Q1157.53 82.7555 1159.09 81.3619 Q1160.65 79.9273 1161.75 78.4926 Q1164.25 75.2545 1166.1 71.0326 Q1167.98 66.8107 1168.84 62.9577 Q1169.74 59.0637 1170.15 56.1945 Q1170.56 53.2842 1170.56 51.3987 Z" fill="#000000" fill-rule="nonzero" fill-opacity="1" /><path clip-path="url(#clip600)" d="M1219.21 18.3506 Q1219.15 18.6376 1219.04 19.154 Q1218.93 19.6418 1218.41 21.1912 Q1217.89 22.7406 1217.2 24.3187 Q1216.54 25.8681 1215.25 28.0487 Q1213.99 30.2006 1212.44 32.1517 Q1212.01 32.6682 1211.92 32.9838 Q1211.87 33.2707 1211.87 34.2176 Q1211.87 40.1856 1213.67 40.1856 Q1213.76 40.1856 1213.9 40.1856 Q1214.08 40.1569 1214.51 40.0135 Q1214.97 39.8413 1215.37 39.5831 Q1215.77 39.2962 1216.23 38.7223 Q1216.69 38.1198 1216.97 37.3164 Q1217.23 36.7425 1217.75 36.7425 Q1218.44 36.7425 1218.44 37.3164 Q1218.44 38.3493 1217 39.9274 Q1215.57 41.5055 1213.5 41.5055 Q1211.52 41.5055 1210.12 40.2143 Q1208.74 38.8945 1208.17 36.5417 Q1201.97 41.5055 1195.77 41.5055 Q1191.41 41.5055 1188.83 38.6649 Q1186.24 35.7957 1186.24 31.5492 Q1186.24 27.4749 1188.48 23.6014 Q1190.75 19.7279 1194.42 17.3177 Q1198.12 14.8789 1202.05 14.8789 Q1203.43 14.8789 1204.75 15.2519 Q1206.07 15.5962 1207.39 16.4856 Q1208.71 17.3751 1209.69 18.7236 Q1210.66 20.0722 1211.26 22.1954 Q1211.87 24.3187 1211.87 26.9871 L1211.87 30.631 Q1215.65 25.8394 1217.63 18.9819 Q1217.92 17.949 1218.09 17.8342 Q1218.21 17.7481 1218.49 17.7481 Q1218.78 17.7481 1218.95 17.9203 Q1219.15 18.0637 1219.18 18.2072 L1219.21 18.3506 M1207.94 35.021 Q1207.82 34.0167 1207.82 28.4504 Q1207.82 27.3888 1207.82 26.8149 Q1207.82 26.2124 1207.76 25.0647 Q1207.71 23.917 1207.59 23.1997 Q1207.51 22.4824 1207.3 21.4494 Q1207.1 20.4165 1206.82 19.7566 Q1206.53 19.0967 1206.07 18.3506 Q1205.64 17.6046 1205.07 17.1743 Q1204.52 16.7439 1203.72 16.4569 Q1202.94 16.17 1202 16.17 Q1200.82 16.17 1199.59 16.6004 Q1198.38 17.0021 1196.83 18.2933 Q1195.28 19.5557 1193.99 21.5642 Q1192.64 23.6875 1191.61 27.5896 Q1190.61 31.4631 1190.61 33.7872 Q1190.61 36.7138 1191.95 38.4641 Q1193.3 40.1856 1195.89 40.1856 Q1202.05 40.1856 1207.94 35.021 Z" fill="#000000" fill-rule="nonzero" fill-opacity="1" /><path clip-path="url(#clip600)" d="M1232.43 111.571 L1232.43 27.6249 L1245.1 27.6249 L1245.1 29.5514 L1238.05 29.5514 L1238.05 109.644 L1245.1 109.644 L1245.1 111.571 L1232.43 111.571 Z" fill="#000000" fill-rule="nonzero" fill-opacity="1" /><path clip-path="url(#clip600)" d="M1281.31 55.3337 Q1281.31 56.4814 1280.78 56.7683 Q1280.25 57.0143 1278.77 57.0143 L1270.9 57.0143 L1264.67 81.7718 Q1264.18 83.9442 1264.18 85.7887 Q1264.18 87.8382 1264.79 88.74 Q1265.45 89.6417 1266.8 89.6417 Q1269.47 89.6417 1272.34 87.2233 Q1275.25 84.805 1277.71 78.9025 Q1278.03 78.1237 1278.2 77.9598 Q1278.4 77.7548 1278.94 77.7548 Q1279.96 77.7548 1279.96 78.5746 Q1279.96 78.8615 1279.39 80.1732 Q1278.85 81.4848 1277.66 83.4113 Q1276.52 85.3378 1275 87.1414 Q1273.52 88.9449 1271.27 90.2566 Q1269.02 91.5272 1266.6 91.5272 Q1263.2 91.5272 1261.02 89.3548 Q1258.89 87.1824 1258.89 83.7802 Q1258.89 82.6735 1259.75 79.1485 Q1260.61 75.5824 1265.29 57.0143 L1257.87 57.0143 Q1256.84 57.0143 1256.43 56.9733 Q1256.06 56.9323 1255.78 56.7273 Q1255.53 56.4814 1255.53 55.9895 Q1255.53 55.2107 1255.86 54.8828 Q1256.19 54.5139 1256.6 54.4729 Q1257.05 54.3909 1258.07 54.3909 L1265.94 54.3909 L1269.22 41.0694 Q1269.55 39.7578 1270.37 39.02 Q1271.23 38.2412 1271.72 38.1592 Q1272.21 38.0362 1272.58 38.0362 Q1273.69 38.0362 1274.34 38.6511 Q1275 39.2249 1275 40.2906 Q1275 40.8645 1271.56 54.3909 L1278.94 54.3909 Q1279.88 54.3909 1280.25 54.4319 Q1280.66 54.4729 1280.98 54.6779 Q1281.31 54.8828 1281.31 55.3337 Z" fill="#000000" fill-rule="nonzero" fill-opacity="1" /><path clip-path="url(#clip600)" d="M1290.02 40.9675 Q1290.02 39.2173 1291.03 38.3852 Q1292.03 37.5531 1293.32 37.5531 Q1294.67 37.5531 1295.62 38.4426 Q1296.59 39.3034 1296.59 40.8241 Q1296.59 42.4595 1295.44 43.3777 Q1294.33 44.2959 1292.72 44.0663 Q1294.12 46.4191 1296.71 47.4807 Q1299.32 48.5423 1301.73 48.5423 Q1304.25 48.5423 1306.29 46.3617 Q1308.36 44.1811 1308.36 38.8443 Q1308.36 34.3109 1306.58 31.6999 Q1304.83 29.0888 1301.35 29.0888 L1298.77 29.0888 Q1297.88 29.0888 1297.62 29.0028 Q1297.37 28.9167 1297.37 28.4289 Q1297.37 27.8551 1298.26 27.7403 Q1299.15 27.7403 1300.55 27.5681 Q1303.97 27.4534 1305.77 24.498 Q1307.41 21.7436 1307.41 17.8127 Q1307.41 14.2261 1305.69 12.7341 Q1303.99 11.2134 1301.79 11.2134 Q1299.72 11.2134 1297.45 12.0742 Q1295.19 12.935 1293.95 14.8574 Q1297.6 14.8574 1297.6 17.8127 Q1297.6 19.1038 1296.76 19.9646 Q1295.96 20.7967 1294.61 20.7967 Q1293.32 20.7967 1292.46 19.9933 Q1291.6 19.1612 1291.6 17.7553 Q1291.6 14.3983 1294.58 12.0742 Q1297.6 9.75009 1302.01 9.75009 Q1306.38 9.75009 1309.59 12.0455 Q1312.83 14.3409 1312.83 17.8701 Q1312.83 21.3419 1310.54 24.1824 Q1308.24 27.023 1304.6 28.1994 Q1309.07 29.0888 1311.74 32.1302 Q1314.41 35.143 1314.41 38.8443 Q1314.41 43.4351 1310.79 46.8208 Q1307.18 50.1778 1301.9 50.1778 Q1297.02 50.1778 1293.52 47.5381 Q1290.02 44.8984 1290.02 40.9675 Z" fill="#000000" fill-rule="nonzero" fill-opacity="1" /><path clip-path="url(#clip600)" d="M1328.08 109.644 L1335.13 109.644 L1335.13 29.5514 L1328.08 29.5514 L1328.08 27.6249 L1340.75 27.6249 L1340.75 111.571 L1328.08 111.571 L1328.08 109.644 Z" fill="#000000" fill-rule="nonzero" fill-opacity="1" /><polyline clip-path="url(#clip602)" style="stroke:#009af9; stroke-linecap:round; stroke-linejoin:round; stroke-width:4; stroke-opacity:1; fill:none" points="175.59,1448.07 196.727,1448.01 217.865,1447.82 239.002,1447.5 260.14,1447.05 281.277,1446.47 302.415,1445.77 323.553,1444.94 344.69,1443.98 365.828,1442.89 386.965,1441.68 408.103,1440.33 429.24,1438.86 450.378,1437.26 471.515,1435.54 492.653,1433.68 513.79,1431.7 534.928,1429.59 556.065,1427.35 577.203,1424.98 598.34,1422.49 619.478,1419.87 640.616,1417.11 661.753,1414.24 682.891,1411.23 704.028,1408.1 725.166,1404.83 746.303,1401.44 767.441,1397.93 788.578,1394.28 809.716,1390.51 830.853,1386.61 851.991,1382.58 873.128,1378.42 894.266,1374.13 915.404,1369.72 936.541,1365.18 957.679,1360.51 978.816,1355.71 999.954,1350.79 1021.09,1345.73 1042.23,1340.55 1063.37,1335.25 1084.5,1329.81 1105.64,1324.24 1126.78,1318.55 1147.92,1312.73 1169.05,1306.78 1190.19,1300.71 1211.33,1294.5 1232.47,1288.17 1253.6,1281.71 1274.74,1275.12 1295.88,1268.41 1317.02,1261.56 1338.15,1254.59 1359.29,1247.49 1380.43,1240.26 1401.57,1232.91 1422.7,1225.43 1443.84,1217.81 1464.98,1210.07 1486.12,1202.21 1507.25,1194.21 1528.39,1186.09 1549.53,1177.84 1570.67,1169.46 1591.8,1160.95 1612.94,1152.32 1634.08,1143.56 1655.22,1134.67 1676.35,1125.65 1697.49,1116.5 1718.63,1107.23 1739.77,1097.82 1760.9,1088.29 1782.04,1078.64 1803.18,1068.85 1824.32,1058.94 1845.46,1048.89 1866.59,1038.72 1887.73,1028.43 1908.87,1018 1930.01,1007.45 1951.14,996.767 1972.28,985.957 1993.42,975.02 2014.56,963.955 2035.69,952.762 2056.83,941.441 2077.97,929.992 2099.11,918.415 2120.24,906.71 2141.38,894.878 2162.52,882.917 2183.66,870.829 2204.79,858.612 2225.93,846.268 2247.07,833.796 2268.21,821.195 2289.34,808.467 "/>
<polyline clip-path="url(#clip602)" style="stroke:#000080; stroke-linecap:round; stroke-linejoin:round; stroke-width:4; stroke-opacity:1; fill:none" stroke-dasharray="16, 10" points="175.59,1448.07 196.727,1448.05 217.865,1447.92 239.002,1447.67 260.14,1447.28 281.277,1446.77 302.415,1446.13 323.553,1445.36 344.69,1444.47 365.828,1443.45 386.965,1442.29 408.103,1441.01 429.24,1439.61 450.378,1438.07 471.515,1436.41 492.653,1434.62 513.79,1432.7 534.928,1430.65 556.065,1428.48 577.203,1426.18 598.34,1423.75 619.478,1421.19 640.616,1418.5 661.753,1415.69 682.891,1412.74 704.028,1409.67 725.166,1406.48 746.303,1403.15 767.441,1399.7 788.578,1396.11 809.716,1392.4 830.853,1388.57 851.991,1384.6 873.128,1380.51 894.266,1376.29 915.404,1371.94 936.541,1367.46 957.679,1362.85 978.816,1358.12 999.954,1353.26 1021.09,1348.27 1042.23,1343.16 1063.37,1337.91 1084.5,1332.54 1105.64,1327.04 1126.78,1321.41 1147.92,1315.65 1169.05,1309.77 1190.19,1303.76 1211.33,1297.62 1232.47,1291.35 1253.6,1284.95 1274.74,1278.43 1295.88,1271.78 1317.02,1265 1338.15,1258.09 1359.29,1251.05 1380.43,1243.89 1401.57,1236.6 1422.7,1229.18 1443.84,1221.63 1464.98,1213.96 1486.12,1206.15 1507.25,1198.22 1528.39,1190.16 1549.53,1181.97 1570.67,1173.66 1591.8,1165.22 1612.94,1156.65 1634.08,1147.95 1655.22,1139.12 1676.35,1130.17 1697.49,1121.08 1718.63,1111.87 1739.77,1102.54 1760.9,1093.07 1782.04,1083.48 1803.18,1073.75 1824.32,1063.9 1845.46,1053.93 1866.59,1043.82 1887.73,1033.59 1908.87,1023.23 1930.01,1012.74 1951.14,1002.12 1972.28,991.373 1993.42,980.499 2014.56,969.498 2035.69,958.369 2056.83,947.112 2077.97,935.727 2099.11,924.214 2120.24,912.573 2141.38,900.805 2162.52,888.908 2183.66,876.884 2204.79,864.731 2225.93,852.451 2247.07,840.042 2268.21,827.506 2289.34,814.842 "/>
<polyline clip-path="url(#clip602)" style="stroke:#3da44d; stroke-linecap:round; stroke-linejoin:round; stroke-width:4; stroke-opacity:1; fill:none" points="175.59,1448.07 196.727,1435.28 217.865,1422.49 239.002,1409.7 260.14,1396.9 281.277,1384.11 302.415,1371.32 323.553,1358.53 344.69,1345.73 365.828,1332.94 386.965,1320.15 408.103,1307.36 429.24,1294.57 450.378,1281.77 471.515,1268.98 492.653,1256.19 513.79,1243.4 534.928,1230.61 556.065,1217.81 577.203,1205.02 598.34,1192.23 619.478,1179.44 640.616,1166.65 661.753,1153.85 682.891,1141.06 704.028,1128.27 725.166,1115.48 746.303,1102.69 767.441,1089.89 788.578,1077.1 809.716,1064.31 830.853,1051.52 851.991,1038.72 873.128,1025.93 894.266,1013.14 915.404,1000.35 936.541,987.556 957.679,974.764 978.816,961.972 999.954,949.18 1021.09,936.388 1042.23,923.596 1063.37,910.804 1084.5,898.012 1105.64,885.22 1126.78,872.428 1147.92,859.636 1169.05,846.843 1190.19,834.051 1211.33,821.259 1232.47,808.467 1253.6,795.675 1274.74,782.883 1295.88,770.091 1317.02,757.299 1338.15,744.507 1359.29,731.715 1380.43,718.923 1401.57,706.13 1422.7,693.338 1443.84,680.546 1464.98,667.754 1486.12,654.962 1507.25,642.17 1528.39,629.378 1549.53,616.586 1570.67,603.794 1591.8,591.002 1612.94,578.21 1634.08,565.418 1655.22,552.625 1676.35,539.833 1697.49,527.041 1718.63,514.249 1739.77,501.457 1760.9,488.665 1782.04,475.873 1803.18,463.081 1824.32,450.289 1845.46,437.497 1866.59,424.705 1887.73,411.912 1908.87,399.12 1930.01,386.328 1951.14,373.536 1972.28,360.744 1993.42,347.952 2014.56,335.16 2035.69,322.368 2056.83,309.576 2077.97,296.784 2099.11,283.992 2120.24,271.199 2141.38,258.407 2162.52,245.615 2183.66,232.823 2204.79,220.031 2225.93,207.239 2247.07,194.447 2268.21,181.655 2289.34,168.863 "/>
<polyline clip-path="url(#clip602)" style="stroke:#000080; stroke-linecap:round; stroke-linejoin:round; stroke-width:4; stroke-opacity:1; fill:none" stroke-dasharray="16, 10" points="175.59,1448.07 196.727,1445.94 217.865,1435.28 239.002,1422.49 260.14,1409.7 281.277,1396.9 302.415,1384.11 323.553,1371.32 344.69,1358.53 365.828,1345.73 386.965,1332.94 408.103,1320.15 429.24,1307.36 450.378,1294.57 471.515,1281.77 492.653,1268.98 513.79,1256.19 534.928,1243.4 556.065,1230.61 577.203,1217.81 598.34,1205.02 619.478,1192.23 640.616,1179.44 661.753,1166.65 682.891,1153.85 704.028,1141.06 725.166,1128.27 746.303,1115.48 767.441,1102.69 788.578,1089.89 809.716,1077.1 830.853,1064.31 851.991,1051.52 873.128,1038.72 894.266,1025.93 915.404,1013.14 936.541,1000.35 957.679,987.556 978.816,974.764 999.954,961.972 1021.09,949.18 1042.23,936.388 1063.37,923.596 1084.5,910.804 1105.64,898.012 1126.78,885.22 1147.92,872.428 1169.05,859.636 1190.19,846.843 1211.33,834.051 1232.47,821.259 1253.6,808.467 1274.74,795.675 1295.88,782.883 1317.02,770.091 1338.15,757.299 1359.29,744.507 1380.43,731.715 1401.57,718.923 1422.7,706.13 1443.84,693.338 1464.98,680.546 1486.12,667.754 1507.25,654.962 1528.39,642.17 1549.53,629.378 1570.67,616.586 1591.8,603.794 1612.94,591.002 1634.08,578.21 1655.22,565.418 1676.35,552.625 1697.49,539.833 1718.63,527.041 1739.77,514.249 1760.9,501.457 1782.04,488.665 1803.18,475.873 1824.32,463.081 1845.46,450.289 1866.59,437.497 1887.73,424.705 1908.87,411.912 1930.01,399.12 1951.14,386.328 1972.28,373.536 1993.42,360.744 2014.56,347.952 2035.69,335.16 2056.83,322.368 2077.97,309.576 2099.11,296.784 2120.24,283.992 2141.38,271.199 2162.52,258.407 2183.66,245.615 2204.79,232.823 2225.93,220.031 2247.07,207.239 2268.21,194.447 2289.34,181.655 "/>
<polyline clip-path="url(#clip602)" style="stroke:#ac8d18; stroke-linecap:round; stroke-linejoin:round; stroke-width:4; stroke-opacity:1; fill:none" points="175.59,168.863 196.727,168.863 217.865,168.863 239.002,168.863 260.14,168.863 281.277,168.863 302.415,168.863 323.553,168.863 344.69,168.863 365.828,168.863 386.965,168.863 408.103,168.863 429.24,168.863 450.378,168.863 471.515,168.863 492.653,168.863 513.79,168.863 534.928,168.863 556.065,168.863 577.203,168.863 598.34,168.863 619.478,168.863 640.616,168.863 661.753,168.863 682.891,168.863 704.028,168.863 725.166,168.863 746.303,168.863 767.441,168.863 788.578,168.863 809.716,168.863 830.853,168.863 851.991,168.863 873.128,168.863 894.266,168.863 915.404,168.863 936.541,168.863 957.679,168.863 978.816,168.863 999.954,168.863 1021.09,168.863 1042.23,168.863 1063.37,168.863 1084.5,168.863 1105.64,168.863 1126.78,168.863 1147.92,168.863 1169.05,168.863 1190.19,168.863 1211.33,168.863 1232.47,168.863 1253.6,168.863 1274.74,168.863 1295.88,168.863 1317.02,168.863 1338.15,168.863 1359.29,168.863 1380.43,168.863 1401.57,168.863 1422.7,168.863 1443.84,168.863 1464.98,168.863 1486.12,168.863 1507.25,168.863 1528.39,168.863 1549.53,168.863 1570.67,168.863 1591.8,168.863 1612.94,168.863 1634.08,168.863 1655.22,168.863 1676.35,168.863 1697.49,168.863 1718.63,168.863 1739.77,168.863 1760.9,168.863 1782.04,168.863 1803.18,168.863 1824.32,168.863 1845.46,168.863 1866.59,168.863 1887.73,168.863 1908.87,168.863 1930.01,168.863 1951.14,168.863 1972.28,168.863 1993.42,168.863 2014.56,168.863 2035.69,168.863 2056.83,168.863 2077.97,168.863 2099.11,168.863 2120.24,168.863 2141.38,168.863 2162.52,168.863 2183.66,168.863 2204.79,168.863 2225.93,168.863 2247.07,168.863 2268.21,168.863 2289.34,168.863 "/>
<polyline clip-path="url(#clip602)" style="stroke:#000080; stroke-linecap:round; stroke-linejoin:round; stroke-width:4; stroke-opacity:1; fill:none" stroke-dasharray="16, 10" points="175.59,1448.07 196.727,1234.87 217.865,382.064 239.002,168.863 260.14,168.863 281.277,168.863 302.415,168.863 323.553,168.863 344.69,168.863 365.828,168.863 386.965,168.863 408.103,168.863 429.24,168.863 450.378,168.863 471.515,168.863 492.653,168.863 513.79,168.863 534.928,168.863 556.065,168.863 577.203,168.863 598.34,168.863 619.478,168.863 640.616,168.863 661.753,168.863 682.891,168.863 704.028,168.863 725.166,168.863 746.303,168.863 767.441,168.863 788.578,168.863 809.716,168.863 830.853,168.863 851.991,168.863 873.128,168.863 894.266,168.863 915.404,168.863 936.541,168.863 957.679,168.863 978.816,168.863 999.954,168.863 1021.09,168.863 1042.23,168.863 1063.37,168.863 1084.5,168.863 1105.64,168.863 1126.78,168.863 1147.92,168.863 1169.05,168.863 1190.19,168.863 1211.33,168.863 1232.47,168.863 1253.6,168.863 1274.74,168.863 1295.88,168.863 1317.02,168.863 1338.15,168.863 1359.29,168.863 1380.43,168.863 1401.57,168.863 1422.7,168.863 1443.84,168.863 1464.98,168.863 1486.12,168.863 1507.25,168.863 1528.39,168.863 1549.53,168.863 1570.67,168.863 1591.8,168.863 1612.94,168.863 1634.08,168.863 1655.22,168.863 1676.35,168.863 1697.49,168.863 1718.63,168.863 1739.77,168.863 1760.9,168.863 1782.04,168.863 1803.18,168.863 1824.32,168.863 1845.46,168.863 1866.59,168.863 1887.73,168.863 1908.87,168.863 1930.01,168.863 1951.14,168.863 1972.28,168.863 1993.42,168.863 2014.56,168.863 2035.69,168.863 2056.83,168.863 2077.97,168.863 2099.11,168.863 2120.24,168.863 2141.38,168.863 2162.52,168.863 2183.66,168.863 2204.79,168.863 2225.93,168.863 2247.07,168.863 2268.21,168.863 2289.34,168.863 "/>
<path clip-path="url(#clip600)" d="M1354.34 1441.25 L2278.07 1441.25 L2278.07 1182.05 L1354.34 1182.05  Z" fill="#ffffff" fill-rule="evenodd" fill-opacity="1"/>
<polyline clip-path="url(#clip600)" style="stroke:#000000; stroke-linecap:round; stroke-linejoin:round; stroke-width:4; stroke-opacity:1; fill:none" points="1354.34,1441.25 2278.07,1441.25 2278.07,1182.05 1354.34,1182.05 1354.34,1441.25 "/>
<polyline clip-path="url(#clip600)" style="stroke:#009af9; stroke-linecap:round; stroke-linejoin:round; stroke-width:4; stroke-opacity:1; fill:none" points="1379.24,1233.89 1528.61,1233.89 "/>
<path clip-path="url(#clip600)" d="M1580.41 1231.08 Q1580.37 1231.31 1580.27 1231.74 Q1580.18 1232.13 1579.76 1233.4 Q1579.34 1234.66 1578.78 1235.95 Q1578.24 1237.22 1577.18 1239 Q1576.15 1240.75 1574.89 1242.35 Q1574.54 1242.77 1574.47 1243.03 Q1574.42 1243.26 1574.42 1244.03 Q1574.42 1248.91 1575.89 1248.91 Q1575.96 1248.91 1576.08 1248.91 Q1576.22 1248.88 1576.57 1248.76 Q1576.95 1248.62 1577.28 1248.41 Q1577.6 1248.18 1577.98 1247.71 Q1578.35 1247.22 1578.59 1246.56 Q1578.8 1246.09 1579.22 1246.09 Q1579.78 1246.09 1579.78 1246.56 Q1579.78 1247.41 1578.61 1248.69 Q1577.44 1249.98 1575.75 1249.98 Q1574.14 1249.98 1572.99 1248.93 Q1571.87 1247.85 1571.4 1245.93 Q1566.34 1249.98 1561.28 1249.98 Q1557.72 1249.98 1555.61 1247.66 Q1553.5 1245.32 1553.5 1241.85 Q1553.5 1238.53 1555.33 1235.37 Q1557.18 1232.2 1560.18 1230.24 Q1563.2 1228.25 1566.41 1228.25 Q1567.53 1228.25 1568.61 1228.55 Q1569.69 1228.83 1570.76 1229.56 Q1571.84 1230.28 1572.64 1231.39 Q1573.43 1232.49 1573.93 1234.22 Q1574.42 1235.95 1574.42 1238.13 L1574.42 1241.11 Q1577.51 1237.19 1579.13 1231.6 Q1579.36 1230.75 1579.5 1230.66 Q1579.6 1230.59 1579.83 1230.59 Q1580.06 1230.59 1580.2 1230.73 Q1580.37 1230.85 1580.39 1230.96 L1580.41 1231.08 M1571.21 1244.69 Q1571.12 1243.87 1571.12 1239.33 Q1571.12 1238.46 1571.12 1237.99 Q1571.12 1237.5 1571.07 1236.56 Q1571.02 1235.62 1570.93 1235.04 Q1570.86 1234.45 1570.69 1233.61 Q1570.53 1232.77 1570.3 1232.23 Q1570.06 1231.69 1569.69 1231.08 Q1569.34 1230.47 1568.87 1230.12 Q1568.42 1229.77 1567.77 1229.53 Q1567.13 1229.3 1566.36 1229.3 Q1565.4 1229.3 1564.39 1229.65 Q1563.41 1229.98 1562.15 1231.03 Q1560.88 1232.06 1559.83 1233.7 Q1558.73 1235.44 1557.88 1238.62 Q1557.06 1241.78 1557.06 1243.68 Q1557.06 1246.07 1558.16 1247.5 Q1559.26 1248.91 1561.37 1248.91 Q1566.41 1248.91 1571.21 1244.69 Z" fill="#000000" fill-rule="nonzero" fill-opacity="1" /><path clip-path="url(#clip600)" d="M1597.19 1242.16 Q1597.24 1241.57 1598.15 1241.57 L1627.55 1241.57 Q1628.93 1241.57 1628.95 1242.11 Q1628.95 1242.7 1627.64 1242.67 L1598.48 1242.67 Q1597.19 1242.7 1597.19 1242.16 M1597.19 1232.79 Q1597.19 1232.2 1598.2 1232.23 L1627.5 1232.23 Q1628.93 1232.23 1628.95 1232.79 Q1628.95 1233.33 1627.73 1233.33 L1598.15 1233.33 Q1597.19 1233.33 1597.19 1232.79 Z" fill="#000000" fill-rule="nonzero" fill-opacity="1" /><path clip-path="url(#clip600)" d="M1647.44 1222.06 L1647.44 1220.56 Q1653.2 1220.56 1656.18 1217.5 Q1657 1217.5 1657.14 1217.68 Q1657.28 1217.87 1657.28 1218.74 L1657.28 1245.65 Q1657.28 1247.08 1657.98 1247.52 Q1658.68 1247.97 1661.75 1247.97 L1663.28 1247.97 L1663.28 1249.44 Q1661.59 1249.3 1655.5 1249.3 Q1649.41 1249.3 1647.75 1249.44 L1647.75 1247.97 L1649.27 1247.97 Q1652.29 1247.97 1653.02 1247.55 Q1653.74 1247.1 1653.74 1245.65 L1653.74 1220.8 Q1651.24 1222.06 1647.44 1222.06 Z" fill="#000000" fill-rule="nonzero" fill-opacity="1" /><polyline clip-path="url(#clip600)" style="stroke:#3da44d; stroke-linecap:round; stroke-linejoin:round; stroke-width:4; stroke-opacity:1; fill:none" points="1379.24,1285.73 1528.61,1285.73 "/>
<path clip-path="url(#clip600)" d="M1580.41 1282.92 Q1580.37 1283.15 1580.27 1283.58 Q1580.18 1283.97 1579.76 1285.24 Q1579.34 1286.5 1578.78 1287.79 Q1578.24 1289.06 1577.18 1290.84 Q1576.15 1292.59 1574.89 1294.19 Q1574.54 1294.61 1574.47 1294.87 Q1574.42 1295.1 1574.42 1295.87 Q1574.42 1300.75 1575.89 1300.75 Q1575.96 1300.75 1576.08 1300.75 Q1576.22 1300.72 1576.57 1300.6 Q1576.95 1300.46 1577.28 1300.25 Q1577.6 1300.02 1577.98 1299.55 Q1578.35 1299.06 1578.59 1298.4 Q1578.8 1297.93 1579.22 1297.93 Q1579.78 1297.93 1579.78 1298.4 Q1579.78 1299.25 1578.61 1300.53 Q1577.44 1301.82 1575.75 1301.82 Q1574.14 1301.82 1572.99 1300.77 Q1571.87 1299.69 1571.4 1297.77 Q1566.34 1301.82 1561.28 1301.82 Q1557.72 1301.82 1555.61 1299.5 Q1553.5 1297.16 1553.5 1293.69 Q1553.5 1290.37 1555.33 1287.21 Q1557.18 1284.04 1560.18 1282.08 Q1563.2 1280.09 1566.41 1280.09 Q1567.53 1280.09 1568.61 1280.39 Q1569.69 1280.67 1570.76 1281.4 Q1571.84 1282.12 1572.64 1283.23 Q1573.43 1284.33 1573.93 1286.06 Q1574.42 1287.79 1574.42 1289.97 L1574.42 1292.95 Q1577.51 1289.03 1579.13 1283.44 Q1579.36 1282.59 1579.5 1282.5 Q1579.6 1282.43 1579.83 1282.43 Q1580.06 1282.43 1580.2 1282.57 Q1580.37 1282.69 1580.39 1282.8 L1580.41 1282.92 M1571.21 1296.53 Q1571.12 1295.71 1571.12 1291.17 Q1571.12 1290.3 1571.12 1289.83 Q1571.12 1289.34 1571.07 1288.4 Q1571.02 1287.46 1570.93 1286.88 Q1570.86 1286.29 1570.69 1285.45 Q1570.53 1284.61 1570.3 1284.07 Q1570.06 1283.53 1569.69 1282.92 Q1569.34 1282.31 1568.87 1281.96 Q1568.42 1281.61 1567.77 1281.37 Q1567.13 1281.14 1566.36 1281.14 Q1565.4 1281.14 1564.39 1281.49 Q1563.41 1281.82 1562.15 1282.87 Q1560.88 1283.9 1559.83 1285.54 Q1558.73 1287.28 1557.88 1290.46 Q1557.06 1293.62 1557.06 1295.52 Q1557.06 1297.91 1558.16 1299.34 Q1559.26 1300.75 1561.37 1300.75 Q1566.41 1300.75 1571.21 1296.53 Z" fill="#000000" fill-rule="nonzero" fill-opacity="1" /><path clip-path="url(#clip600)" d="M1597.19 1294 Q1597.24 1293.41 1598.15 1293.41 L1627.55 1293.41 Q1628.93 1293.41 1628.95 1293.95 Q1628.95 1294.54 1627.64 1294.51 L1598.48 1294.51 Q1597.19 1294.54 1597.19 1294 M1597.19 1284.63 Q1597.19 1284.04 1598.2 1284.07 L1627.5 1284.07 Q1628.93 1284.07 1628.95 1284.63 Q1628.95 1285.17 1627.73 1285.17 L1598.15 1285.17 Q1597.19 1285.17 1597.19 1284.63 Z" fill="#000000" fill-rule="nonzero" fill-opacity="1" /><path clip-path="url(#clip600)" d="M1647.44 1301.28 Q1647.44 1300.42 1647.51 1300.16 Q1647.61 1299.9 1647.98 1299.5 L1657.19 1289.24 Q1662.22 1283.58 1662.22 1278.63 Q1662.22 1275.43 1660.54 1273.13 Q1658.87 1270.83 1655.8 1270.83 Q1653.7 1270.83 1651.92 1272.12 Q1650.14 1273.41 1649.32 1275.71 Q1649.46 1275.66 1649.95 1275.66 Q1651.14 1275.66 1651.8 1276.41 Q1652.48 1277.16 1652.48 1278.17 Q1652.48 1279.45 1651.63 1280.09 Q1650.82 1280.7 1650 1280.7 Q1649.67 1280.7 1649.22 1280.63 Q1648.8 1280.55 1648.12 1279.9 Q1647.44 1279.22 1647.44 1278.03 Q1647.44 1274.68 1649.97 1272.01 Q1652.52 1269.34 1656.41 1269.34 Q1660.82 1269.34 1663.7 1271.96 Q1666.6 1274.56 1666.6 1278.63 Q1666.6 1280.06 1666.16 1281.37 Q1665.74 1282.66 1665.15 1283.67 Q1664.59 1284.68 1663.04 1286.29 Q1661.5 1287.91 1660.25 1289.06 Q1659.01 1290.21 1656.23 1292.64 L1651.14 1297.58 L1659.79 1297.58 Q1664 1297.58 1664.33 1297.21 Q1664.8 1296.53 1665.38 1292.95 L1666.6 1292.95 L1665.24 1301.28 L1647.44 1301.28 Z" fill="#000000" fill-rule="nonzero" fill-opacity="1" /><polyline clip-path="url(#clip600)" style="stroke:#ac8d18; stroke-linecap:round; stroke-linejoin:round; stroke-width:4; stroke-opacity:1; fill:none" points="1379.24,1337.57 1528.61,1337.57 "/>
<path clip-path="url(#clip600)" d="M1580.41 1334.5 Q1580.37 1334.74 1580.27 1335.16 Q1580.18 1335.56 1579.76 1336.82 Q1579.34 1338.09 1578.78 1339.37 Q1578.24 1340.64 1577.18 1342.42 Q1576.15 1344.18 1574.89 1345.77 Q1574.54 1346.19 1574.47 1346.45 Q1574.42 1346.68 1574.42 1347.46 Q1574.42 1352.33 1575.89 1352.33 Q1575.96 1352.33 1576.08 1352.33 Q1576.22 1352.3 1576.57 1352.19 Q1576.95 1352.05 1577.28 1351.84 Q1577.6 1351.6 1577.98 1351.13 Q1578.35 1350.64 1578.59 1349.99 Q1578.8 1349.52 1579.22 1349.52 Q1579.78 1349.52 1579.78 1349.99 Q1579.78 1350.83 1578.61 1352.12 Q1577.44 1353.4 1575.75 1353.4 Q1574.14 1353.4 1572.99 1352.35 Q1571.87 1351.27 1571.4 1349.35 Q1566.34 1353.4 1561.28 1353.4 Q1557.72 1353.4 1555.61 1351.09 Q1553.5 1348.74 1553.5 1345.28 Q1553.5 1341.95 1555.33 1338.79 Q1557.18 1335.63 1560.18 1333.66 Q1563.2 1331.67 1566.41 1331.67 Q1567.53 1331.67 1568.61 1331.97 Q1569.69 1332.25 1570.76 1332.98 Q1571.84 1333.71 1572.64 1334.81 Q1573.43 1335.91 1573.93 1337.64 Q1574.42 1339.37 1574.42 1341.55 L1574.42 1344.53 Q1577.51 1340.62 1579.13 1335.02 Q1579.36 1334.17 1579.5 1334.08 Q1579.6 1334.01 1579.83 1334.01 Q1580.06 1334.01 1580.2 1334.15 Q1580.37 1334.27 1580.39 1334.39 L1580.41 1334.5 M1571.21 1348.11 Q1571.12 1347.29 1571.12 1342.75 Q1571.12 1341.88 1571.12 1341.41 Q1571.12 1340.92 1571.07 1339.98 Q1571.02 1339.05 1570.93 1338.46 Q1570.86 1337.88 1570.69 1337.03 Q1570.53 1336.19 1570.3 1335.65 Q1570.06 1335.11 1569.69 1334.5 Q1569.34 1333.89 1568.87 1333.54 Q1568.42 1333.19 1567.77 1332.96 Q1567.13 1332.72 1566.36 1332.72 Q1565.4 1332.72 1564.39 1333.07 Q1563.41 1333.4 1562.15 1334.46 Q1560.88 1335.49 1559.83 1337.13 Q1558.73 1338.86 1557.88 1342.04 Q1557.06 1345.21 1557.06 1347.1 Q1557.06 1349.49 1558.16 1350.92 Q1559.26 1352.33 1561.37 1352.33 Q1566.41 1352.33 1571.21 1348.11 Z" fill="#000000" fill-rule="nonzero" fill-opacity="1" /><path clip-path="url(#clip600)" d="M1597.19 1345.58 Q1597.24 1345 1598.15 1345 L1627.55 1345 Q1628.93 1345 1628.95 1345.53 Q1628.95 1346.12 1627.64 1346.1 L1598.48 1346.1 Q1597.19 1346.12 1597.19 1345.58 M1597.19 1336.21 Q1597.19 1335.63 1598.2 1335.65 L1627.5 1335.65 Q1628.93 1335.65 1628.95 1336.21 Q1628.95 1336.75 1627.73 1336.75 L1598.15 1336.75 Q1597.19 1336.75 1597.19 1336.21 Z" fill="#000000" fill-rule="nonzero" fill-opacity="1" /><path clip-path="url(#clip600)" d="M1647.44 1346.4 Q1647.44 1344.97 1648.26 1344.29 Q1649.08 1343.61 1650.14 1343.61 Q1651.24 1343.61 1652.01 1344.34 Q1652.81 1345.04 1652.81 1346.28 Q1652.81 1347.62 1651.87 1348.37 Q1650.96 1349.12 1649.64 1348.93 Q1650.79 1350.85 1652.9 1351.72 Q1655.03 1352.58 1657 1352.58 Q1659.06 1352.58 1660.72 1350.8 Q1662.41 1349.02 1662.41 1344.67 Q1662.41 1340.97 1660.96 1338.84 Q1659.53 1336.7 1656.69 1336.7 L1654.59 1336.7 Q1653.86 1336.7 1653.65 1336.63 Q1653.44 1336.56 1653.44 1336.17 Q1653.44 1335.7 1654.16 1335.6 Q1654.89 1335.6 1656.04 1335.46 Q1658.83 1335.37 1660.3 1332.96 Q1661.64 1330.71 1661.64 1327.5 Q1661.64 1324.57 1660.23 1323.35 Q1658.85 1322.11 1657.05 1322.11 Q1655.36 1322.11 1653.51 1322.82 Q1651.66 1323.52 1650.65 1325.09 Q1653.63 1325.09 1653.63 1327.5 Q1653.63 1328.55 1652.95 1329.26 Q1652.29 1329.94 1651.19 1329.94 Q1650.14 1329.94 1649.43 1329.28 Q1648.73 1328.6 1648.73 1327.45 Q1648.73 1324.71 1651.17 1322.82 Q1653.63 1320.92 1657.23 1320.92 Q1660.79 1320.92 1663.42 1322.79 Q1666.06 1324.67 1666.06 1327.55 Q1666.06 1330.38 1664.19 1332.7 Q1662.32 1335.02 1659.34 1335.98 Q1662.99 1336.7 1665.17 1339.19 Q1667.35 1341.65 1667.35 1344.67 Q1667.35 1348.42 1664.4 1351.18 Q1661.45 1353.92 1657.14 1353.92 Q1653.16 1353.92 1650.3 1351.77 Q1647.44 1349.61 1647.44 1346.4 Z" fill="#000000" fill-rule="nonzero" fill-opacity="1" /><polyline clip-path="url(#clip600)" style="stroke:#000080; stroke-linecap:round; stroke-linejoin:round; stroke-width:4; stroke-opacity:1; fill:none" stroke-dasharray="16, 10" points="1379.24,1389.41 1528.61,1389.41 "/>
<path clip-path="url(#clip600)" d="M1553.5 1372.13 L1559.8 1372.13 L1575.12 1401.04 L1575.12 1372.13 L1579.66 1372.13 L1579.66 1406.69 L1573.36 1406.69 L1558.04 1377.78 L1558.04 1406.69 L1553.5 1406.69 L1553.5 1372.13 Z" fill="#000000" fill-rule="nonzero" fill-opacity="1" /><path clip-path="url(#clip600)" d="M1588.34 1396.46 L1588.34 1380.76 L1592.6 1380.76 L1592.6 1396.3 Q1592.6 1399.98 1594.03 1401.83 Q1595.47 1403.66 1598.34 1403.66 Q1601.79 1403.66 1603.78 1401.46 Q1605.79 1399.26 1605.79 1395.46 L1605.79 1380.76 L1610.05 1380.76 L1610.05 1406.69 L1605.79 1406.69 L1605.79 1402.71 Q1604.24 1405.07 1602.18 1406.23 Q1600.15 1407.36 1597.44 1407.36 Q1592.97 1407.36 1590.66 1404.58 Q1588.34 1401.8 1588.34 1396.46 M1599.06 1380.14 L1599.06 1380.14 Z" fill="#000000" fill-rule="nonzero" fill-opacity="1" /><path clip-path="url(#clip600)" d="M1639.01 1385.74 Q1640.61 1382.87 1642.83 1381.5 Q1645.05 1380.14 1648.06 1380.14 Q1652.11 1380.14 1654.31 1382.99 Q1656.51 1385.81 1656.51 1391.04 L1656.51 1406.69 L1652.23 1406.69 L1652.23 1391.18 Q1652.23 1387.45 1650.91 1385.65 Q1649.59 1383.84 1646.88 1383.84 Q1643.57 1383.84 1641.65 1386.04 Q1639.73 1388.24 1639.73 1392.04 L1639.73 1406.69 L1635.45 1406.69 L1635.45 1391.18 Q1635.45 1387.43 1634.13 1385.65 Q1632.81 1383.84 1630.05 1383.84 Q1626.79 1383.84 1624.87 1386.06 Q1622.95 1388.26 1622.95 1392.04 L1622.95 1406.69 L1618.66 1406.69 L1618.66 1380.76 L1622.95 1380.76 L1622.95 1384.79 Q1624.4 1382.41 1626.44 1381.27 Q1628.48 1380.14 1631.28 1380.14 Q1634.1 1380.14 1636.07 1381.57 Q1638.06 1383.01 1639.01 1385.74 Z" fill="#000000" fill-rule="nonzero" fill-opacity="1" /><path clip-path="url(#clip600)" d="M1687.18 1392.66 L1687.18 1394.74 L1667.6 1394.74 Q1667.88 1399.14 1670.24 1401.46 Q1672.62 1403.75 1676.86 1403.75 Q1679.31 1403.75 1681.6 1403.15 Q1683.92 1402.55 1686.19 1401.34 L1686.19 1405.37 Q1683.9 1406.34 1681.49 1406.85 Q1679.08 1407.36 1676.6 1407.36 Q1670.4 1407.36 1666.77 1403.75 Q1663.15 1400.14 1663.15 1393.98 Q1663.15 1387.62 1666.58 1383.89 Q1670.03 1380.14 1675.86 1380.14 Q1681.09 1380.14 1684.13 1383.52 Q1687.18 1386.87 1687.18 1392.66 M1682.92 1391.41 Q1682.88 1387.92 1680.96 1385.83 Q1679.06 1383.75 1675.91 1383.75 Q1672.34 1383.75 1670.19 1385.76 Q1668.06 1387.78 1667.74 1391.43 L1682.92 1391.41 Z" fill="#000000" fill-rule="nonzero" fill-opacity="1" /><path clip-path="url(#clip600)" d="M1709.2 1384.74 Q1708.48 1384.33 1707.62 1384.14 Q1706.79 1383.93 1705.77 1383.93 Q1702.16 1383.93 1700.21 1386.3 Q1698.29 1388.63 1698.29 1393.03 L1698.29 1406.69 L1694.01 1406.69 L1694.01 1380.76 L1698.29 1380.76 L1698.29 1384.79 Q1699.64 1382.43 1701.79 1381.3 Q1703.94 1380.14 1707.02 1380.14 Q1707.46 1380.14 1707.99 1380.21 Q1708.52 1380.25 1709.17 1380.37 L1709.2 1384.74 Z" fill="#000000" fill-rule="nonzero" fill-opacity="1" /><path clip-path="url(#clip600)" d="M1713.66 1380.76 L1717.92 1380.76 L1717.92 1406.69 L1713.66 1406.69 L1713.66 1380.76 M1713.66 1370.67 L1717.92 1370.67 L1717.92 1376.06 L1713.66 1376.06 L1713.66 1370.67 Z" fill="#000000" fill-rule="nonzero" fill-opacity="1" /><path clip-path="url(#clip600)" d="M1745.49 1381.76 L1745.49 1385.74 Q1743.69 1384.74 1741.86 1384.26 Q1740.05 1383.75 1738.2 1383.75 Q1734.06 1383.75 1731.77 1386.39 Q1729.47 1389 1729.47 1393.75 Q1729.47 1398.49 1731.77 1401.13 Q1734.06 1403.75 1738.2 1403.75 Q1740.05 1403.75 1741.86 1403.26 Q1743.69 1402.75 1745.49 1401.76 L1745.49 1405.69 Q1743.71 1406.53 1741.79 1406.94 Q1739.89 1407.36 1737.74 1407.36 Q1731.88 1407.36 1728.43 1403.68 Q1724.98 1400 1724.98 1393.75 Q1724.98 1387.41 1728.46 1383.77 Q1731.95 1380.14 1738.02 1380.14 Q1739.98 1380.14 1741.86 1380.56 Q1743.73 1380.95 1745.49 1381.76 Z" fill="#000000" fill-rule="nonzero" fill-opacity="1" /><path clip-path="url(#clip600)" d="M1764.68 1393.66 Q1759.52 1393.66 1757.53 1394.84 Q1755.54 1396.02 1755.54 1398.87 Q1755.54 1401.13 1757.02 1402.48 Q1758.52 1403.8 1761.09 1403.8 Q1764.64 1403.8 1766.77 1401.3 Q1768.92 1398.77 1768.92 1394.61 L1768.92 1393.66 L1764.68 1393.66 M1773.18 1391.9 L1773.18 1406.69 L1768.92 1406.69 L1768.92 1402.75 Q1767.46 1405.12 1765.28 1406.25 Q1763.11 1407.36 1759.96 1407.36 Q1755.98 1407.36 1753.62 1405.14 Q1751.28 1402.89 1751.28 1399.14 Q1751.28 1394.77 1754.2 1392.55 Q1757.14 1390.32 1762.95 1390.32 L1768.92 1390.32 L1768.92 1389.91 Q1768.92 1386.97 1766.97 1385.37 Q1765.05 1383.75 1761.56 1383.75 Q1759.33 1383.75 1757.23 1384.28 Q1755.12 1384.81 1753.18 1385.88 L1753.18 1381.94 Q1755.52 1381.04 1757.71 1380.6 Q1759.91 1380.14 1762 1380.14 Q1767.62 1380.14 1770.4 1383.06 Q1773.18 1385.97 1773.18 1391.9 Z" fill="#000000" fill-rule="nonzero" fill-opacity="1" /><path clip-path="url(#clip600)" d="M1781.95 1370.67 L1786.21 1370.67 L1786.21 1406.69 L1781.95 1406.69 L1781.95 1370.67 Z" fill="#000000" fill-rule="nonzero" fill-opacity="1" /><path clip-path="url(#clip600)" d="M1828.85 1381.76 L1828.85 1385.74 Q1827.04 1384.74 1825.21 1384.26 Q1823.41 1383.75 1821.56 1383.75 Q1817.41 1383.75 1815.12 1386.39 Q1812.83 1389 1812.83 1393.75 Q1812.83 1398.49 1815.12 1401.13 Q1817.41 1403.75 1821.56 1403.75 Q1823.41 1403.75 1825.21 1403.26 Q1827.04 1402.75 1828.85 1401.76 L1828.85 1405.69 Q1827.07 1406.53 1825.14 1406.94 Q1823.25 1407.36 1821.09 1407.36 Q1815.24 1407.36 1811.79 1403.68 Q1808.34 1400 1808.34 1393.75 Q1808.34 1387.41 1811.81 1383.77 Q1815.31 1380.14 1821.37 1380.14 Q1823.34 1380.14 1825.21 1380.56 Q1827.09 1380.95 1828.85 1381.76 Z" fill="#000000" fill-rule="nonzero" fill-opacity="1" /><path clip-path="url(#clip600)" d="M1846.3 1383.75 Q1842.88 1383.75 1840.89 1386.43 Q1838.89 1389.1 1838.89 1393.75 Q1838.89 1398.4 1840.86 1401.09 Q1842.85 1403.75 1846.3 1403.75 Q1849.7 1403.75 1851.7 1401.06 Q1853.69 1398.38 1853.69 1393.75 Q1853.69 1389.14 1851.7 1386.46 Q1849.7 1383.75 1846.3 1383.75 M1846.3 1380.14 Q1851.86 1380.14 1855.03 1383.75 Q1858.2 1387.36 1858.2 1393.75 Q1858.2 1400.12 1855.03 1403.75 Q1851.86 1407.36 1846.3 1407.36 Q1840.72 1407.36 1837.55 1403.75 Q1834.4 1400.12 1834.4 1393.75 Q1834.4 1387.36 1837.55 1383.75 Q1840.72 1380.14 1846.3 1380.14 Z" fill="#000000" fill-rule="nonzero" fill-opacity="1" /><path clip-path="url(#clip600)" d="M1880.28 1384.74 Q1879.57 1384.33 1878.71 1384.14 Q1877.88 1383.93 1876.86 1383.93 Q1873.25 1383.93 1871.3 1386.3 Q1869.38 1388.63 1869.38 1393.03 L1869.38 1406.69 L1865.1 1406.69 L1865.1 1380.76 L1869.38 1380.76 L1869.38 1384.79 Q1870.72 1382.43 1872.88 1381.3 Q1875.03 1380.14 1878.11 1380.14 Q1878.55 1380.14 1879.08 1380.21 Q1879.61 1380.25 1880.26 1380.37 L1880.28 1384.74 Z" fill="#000000" fill-rule="nonzero" fill-opacity="1" /><path clip-path="url(#clip600)" d="M1898.94 1384.74 Q1898.22 1384.33 1897.37 1384.14 Q1896.53 1383.93 1895.51 1383.93 Q1891.9 1383.93 1889.96 1386.3 Q1888.04 1388.63 1888.04 1393.03 L1888.04 1406.69 L1883.76 1406.69 L1883.76 1380.76 L1888.04 1380.76 L1888.04 1384.79 Q1889.38 1382.43 1891.53 1381.3 Q1893.69 1380.14 1896.76 1380.14 Q1897.2 1380.14 1897.74 1380.21 Q1898.27 1380.25 1898.92 1380.37 L1898.94 1384.74 Z" fill="#000000" fill-rule="nonzero" fill-opacity="1" /><path clip-path="url(#clip600)" d="M1924.54 1392.66 L1924.54 1394.74 L1904.96 1394.74 Q1905.24 1399.14 1907.6 1401.46 Q1909.98 1403.75 1914.22 1403.75 Q1916.67 1403.75 1918.96 1403.15 Q1921.28 1402.55 1923.55 1401.34 L1923.55 1405.37 Q1921.26 1406.34 1918.85 1406.85 Q1916.44 1407.36 1913.96 1407.36 Q1907.76 1407.36 1904.13 1403.75 Q1900.51 1400.14 1900.51 1393.98 Q1900.51 1387.62 1903.94 1383.89 Q1907.39 1380.14 1913.22 1380.14 Q1918.45 1380.14 1921.49 1383.52 Q1924.54 1386.87 1924.54 1392.66 M1920.28 1391.41 Q1920.24 1387.92 1918.32 1385.83 Q1916.42 1383.75 1913.27 1383.75 Q1909.7 1383.75 1907.55 1385.76 Q1905.42 1387.78 1905.1 1391.43 L1920.28 1391.41 Z" fill="#000000" fill-rule="nonzero" fill-opacity="1" /><path clip-path="url(#clip600)" d="M1950.19 1381.76 L1950.19 1385.74 Q1948.38 1384.74 1946.56 1384.26 Q1944.75 1383.75 1942.9 1383.75 Q1938.76 1383.75 1936.46 1386.39 Q1934.17 1389 1934.17 1393.75 Q1934.17 1398.49 1936.46 1401.13 Q1938.76 1403.75 1942.9 1403.75 Q1944.75 1403.75 1946.56 1403.26 Q1948.38 1402.75 1950.19 1401.76 L1950.19 1405.69 Q1948.41 1406.53 1946.49 1406.94 Q1944.59 1407.36 1942.44 1407.36 Q1936.58 1407.36 1933.13 1403.68 Q1929.68 1400 1929.68 1393.75 Q1929.68 1387.41 1933.15 1383.77 Q1936.65 1380.14 1942.71 1380.14 Q1944.68 1380.14 1946.56 1380.56 Q1948.43 1380.95 1950.19 1381.76 Z" fill="#000000" fill-rule="nonzero" fill-opacity="1" /><path clip-path="url(#clip600)" d="M1961.81 1373.4 L1961.81 1380.76 L1970.58 1380.76 L1970.58 1384.07 L1961.81 1384.07 L1961.81 1398.15 Q1961.81 1401.32 1962.67 1402.22 Q1963.55 1403.12 1966.21 1403.12 L1970.58 1403.12 L1970.58 1406.69 L1966.21 1406.69 Q1961.28 1406.69 1959.4 1404.86 Q1957.53 1403.01 1957.53 1398.15 L1957.53 1384.07 L1954.4 1384.07 L1954.4 1380.76 L1957.53 1380.76 L1957.53 1373.4 L1961.81 1373.4 Z" fill="#000000" fill-rule="nonzero" fill-opacity="1" /><path clip-path="url(#clip600)" d="M1976.19 1380.76 L1980.44 1380.76 L1980.44 1406.69 L1976.19 1406.69 L1976.19 1380.76 M1976.19 1370.67 L1980.44 1370.67 L1980.44 1376.06 L1976.19 1376.06 L1976.19 1370.67 Z" fill="#000000" fill-rule="nonzero" fill-opacity="1" /><path clip-path="url(#clip600)" d="M1999.4 1383.75 Q1995.98 1383.75 1993.99 1386.43 Q1992 1389.1 1992 1393.75 Q1992 1398.4 1993.96 1401.09 Q1995.95 1403.75 1999.4 1403.75 Q2002.81 1403.75 2004.8 1401.06 Q2006.79 1398.38 2006.79 1393.75 Q2006.79 1389.14 2004.8 1386.46 Q2002.81 1383.75 1999.4 1383.75 M1999.4 1380.14 Q2004.96 1380.14 2008.13 1383.75 Q2011.3 1387.36 2011.3 1393.75 Q2011.3 1400.12 2008.13 1403.75 Q2004.96 1407.36 1999.4 1407.36 Q1993.82 1407.36 1990.65 1403.75 Q1987.5 1400.12 1987.5 1393.75 Q1987.5 1387.36 1990.65 1383.75 Q1993.82 1380.14 1999.4 1380.14 Z" fill="#000000" fill-rule="nonzero" fill-opacity="1" /><path clip-path="url(#clip600)" d="M2039.91 1391.04 L2039.91 1406.69 L2035.65 1406.69 L2035.65 1391.18 Q2035.65 1387.5 2034.22 1385.67 Q2032.78 1383.84 2029.91 1383.84 Q2026.46 1383.84 2024.47 1386.04 Q2022.48 1388.24 2022.48 1392.04 L2022.48 1406.69 L2018.2 1406.69 L2018.2 1380.76 L2022.48 1380.76 L2022.48 1384.79 Q2024.01 1382.45 2026.07 1381.3 Q2028.15 1380.14 2030.86 1380.14 Q2035.33 1380.14 2037.62 1382.92 Q2039.91 1385.67 2039.91 1391.04 Z" fill="#000000" fill-rule="nonzero" fill-opacity="1" /><path clip-path="url(#clip600)" d="M2049.5 1400.81 L2054.38 1400.81 L2054.38 1406.69 L2049.5 1406.69 L2049.5 1400.81 M2049.5 1382.18 L2054.38 1382.18 L2054.38 1388.06 L2049.5 1388.06 L2049.5 1382.18 Z" fill="#000000" fill-rule="nonzero" fill-opacity="1" /><path clip-path="url(#clip600)" d="M2080.86 1402.75 L2088.5 1402.75 L2088.5 1376.39 L2080.19 1378.06 L2080.19 1373.8 L2088.45 1372.13 L2093.13 1372.13 L2093.13 1402.75 L2100.77 1402.75 L2100.77 1406.69 L2080.86 1406.69 L2080.86 1402.75 Z" fill="#000000" fill-rule="nonzero" fill-opacity="1" /><path clip-path="url(#clip600)" d="M2110.21 1400.81 L2115.1 1400.81 L2115.1 1406.69 L2110.21 1406.69 L2110.21 1400.81 Z" fill="#000000" fill-rule="nonzero" fill-opacity="1" /><path clip-path="url(#clip600)" d="M2135.28 1375.21 Q2131.67 1375.21 2129.84 1378.77 Q2128.04 1382.31 2128.04 1389.44 Q2128.04 1396.55 2129.84 1400.12 Q2131.67 1403.66 2135.28 1403.66 Q2138.92 1403.66 2140.72 1400.12 Q2142.55 1396.55 2142.55 1389.44 Q2142.55 1382.31 2140.72 1378.77 Q2138.92 1375.21 2135.28 1375.21 M2135.28 1371.5 Q2141.09 1371.5 2144.15 1376.11 Q2147.23 1380.69 2147.23 1389.44 Q2147.23 1398.17 2144.15 1402.78 Q2141.09 1407.36 2135.28 1407.36 Q2129.47 1407.36 2126.39 1402.78 Q2123.34 1398.17 2123.34 1389.44 Q2123.34 1380.69 2126.39 1376.11 Q2129.47 1371.5 2135.28 1371.5 Z" fill="#000000" fill-rule="nonzero" fill-opacity="1" /><path clip-path="url(#clip600)" d="M2177.02 1392.66 L2177.02 1394.74 L2157.43 1394.74 Q2157.71 1399.14 2160.07 1401.46 Q2162.46 1403.75 2166.69 1403.75 Q2169.15 1403.75 2171.44 1403.15 Q2173.75 1402.55 2176.02 1401.34 L2176.02 1405.37 Q2173.73 1406.34 2171.32 1406.85 Q2168.92 1407.36 2166.44 1407.36 Q2160.24 1407.36 2156.6 1403.75 Q2152.99 1400.14 2152.99 1393.98 Q2152.99 1387.62 2156.42 1383.89 Q2159.86 1380.14 2165.7 1380.14 Q2170.93 1380.14 2173.96 1383.52 Q2177.02 1386.87 2177.02 1392.66 M2172.76 1391.41 Q2172.71 1387.92 2170.79 1385.83 Q2168.89 1383.75 2165.74 1383.75 Q2162.18 1383.75 2160.03 1385.76 Q2157.9 1387.78 2157.57 1391.43 L2172.76 1391.41 Z" fill="#000000" fill-rule="nonzero" fill-opacity="1" /><path clip-path="url(#clip600)" d="M2181.86 1391.8 L2194.33 1391.8 L2194.33 1395.6 L2181.86 1395.6 L2181.86 1391.8 Z" fill="#000000" fill-rule="nonzero" fill-opacity="1" /><path clip-path="url(#clip600)" d="M2202.53 1402.75 L2210.17 1402.75 L2210.17 1376.39 L2201.86 1378.06 L2201.86 1373.8 L2210.12 1372.13 L2214.8 1372.13 L2214.8 1402.75 L2222.43 1402.75 L2222.43 1406.69 L2202.53 1406.69 L2202.53 1402.75 Z" fill="#000000" fill-rule="nonzero" fill-opacity="1" /><path clip-path="url(#clip600)" d="M2246.05 1388.06 Q2249.4 1388.77 2251.28 1391.04 Q2253.17 1393.31 2253.17 1396.64 Q2253.17 1401.76 2249.66 1404.56 Q2246.14 1407.36 2239.66 1407.36 Q2237.48 1407.36 2235.17 1406.92 Q2232.87 1406.5 2230.42 1405.65 L2230.42 1401.13 Q2232.36 1402.27 2234.68 1402.85 Q2236.99 1403.43 2239.52 1403.43 Q2243.92 1403.43 2246.21 1401.69 Q2248.52 1399.95 2248.52 1396.64 Q2248.52 1393.59 2246.37 1391.87 Q2244.24 1390.14 2240.42 1390.14 L2236.39 1390.14 L2236.39 1386.3 L2240.61 1386.3 Q2244.05 1386.3 2245.88 1384.93 Q2247.71 1383.54 2247.71 1380.95 Q2247.71 1378.29 2245.81 1376.87 Q2243.94 1375.44 2240.42 1375.44 Q2238.5 1375.44 2236.3 1375.86 Q2234.1 1376.27 2231.46 1377.15 L2231.46 1372.99 Q2234.12 1372.24 2236.44 1371.87 Q2238.78 1371.5 2240.84 1371.5 Q2246.16 1371.5 2249.26 1373.93 Q2252.36 1376.34 2252.36 1380.46 Q2252.36 1383.33 2250.72 1385.32 Q2249.08 1387.29 2246.05 1388.06 Z" fill="#000000" fill-rule="nonzero" fill-opacity="1" /></svg>
